<svg width="33" height="32" viewBox="0 0 33 32" fill="none" xmlns="http://www.w3.org/2000/svg">
<path d="M16.5 32C16.0856 32 15.6882 31.8354 15.3951 31.5424C15.1021 31.2493 14.9375 30.8519 14.9375 30.4375V1.5625C14.9375 1.1481 15.1021 0.750671 15.3951 0.457646C15.6882 0.16462 16.0856 0 16.5 0C16.9144 0 17.3118 0.16462 17.6049 0.457646C17.8979 0.750671 18.0625 1.1481 18.0625 1.5625V30.4375C18.0625 30.8519 17.8979 31.2493 17.6049 31.5424C17.3118 31.8354 16.9144 32 16.5 32Z" fill="#595959"/>
<path d="M30.9375 17.5625H2.0625C1.6481 17.5625 1.25067 17.3979 0.957646 17.1049C0.66462 16.8118 0.5 16.4144 0.5 16C0.5 15.5856 0.66462 15.1882 0.957646 14.8951C1.25067 14.6021 1.6481 14.4375 2.0625 14.4375H30.9375C31.3519 14.4375 31.7493 14.6021 32.0424 14.8951C32.3354 15.1882 32.5 15.5856 32.5 16C32.5 16.4144 32.3354 16.8118 32.0424 17.1049C31.7493 17.3979 31.3519 17.5625 30.9375 17.5625Z" fill="#595959"/>
</svg>
