<svg width="27" height="11" viewBox="0 0 27 11" fill="none" xmlns="http://www.w3.org/2000/svg">
<path d="M26.2358 7.50387L25.9814 8.83187C25.7462 10.0735 24.583 10.9087 23.2662 10.7807L20.647 10.5279C19.5046 10.4175 18.6582 9.58387 18.2998 8.39987C17.8134 6.79187 17.4998 5.59987 17.4998 5.59987C16.2365 5.05845 14.8742 4.786 13.4998 4.79987C11.8774 4.79987 10.719 5.14387 9.4998 5.59987C9.4998 5.59987 9.1734 6.79347 8.6998 8.39987C8.383 9.47187 7.8934 10.4111 6.775 10.5231L4.1702 10.7855C3.5359 10.8464 2.89995 10.6872 2.36912 10.3347C1.83829 9.98216 1.4449 9.45774 1.255 8.84947L0.858203 7.52307C0.661541 6.88894 0.64367 6.21283 0.806556 5.56919C0.969443 4.92555 1.30677 4.33933 1.7814 3.87507C4.0614 1.66067 8.1654 0.412675 13.487 0.406275C18.8182 0.399875 22.4374 1.64147 24.9462 3.85587C26.0022 4.78707 26.4854 6.18867 26.2342 7.50387H26.2358Z" fill="#FFFFFF"/>
</svg>
