<svg width="32" height="32" viewBox="0 0 32 32" fill="none" xmlns="http://www.w3.org/2000/svg">
<path d="M29.3333 4H9.33333C8.41333 4 7.69333 4.46667 7.21333 5.17333L0 16L7.21333 26.8133C7.69333 27.52 8.41333 28 9.33333 28H29.3333C30.8 28 32 26.8 32 25.3333V6.66667C32 5.2 30.8 4 29.3333 4ZM29.3333 25.3333H9.42667L3.2 16L9.41333 6.66667H29.3333V25.3333ZM13.88 22.6667L18.6667 17.88L23.4533 22.6667L25.3333 20.7867L20.5467 16L25.3333 11.2133L23.4533 9.33333L18.6667 14.12L13.88 9.33333L12 11.2133L16.7867 16L12 20.7867L13.88 22.6667Z" fill="#3D3D3F"/>
</svg>
