<svg width="33" height="32" viewBox="0 0 33 32" fill="none" xmlns="http://www.w3.org/2000/svg">
<path d="M22.6437 28.8375C13.9374 29.1187 -1.71259 13.5875 5.55616 5.15623L6.78741 4.08748C8.08741 2.83748 10.1437 2.85623 11.4124 4.13748C11.4437 4.16873 13.4249 6.74373 13.4249 6.74373C14.6499 8.02498 14.6437 10.0437 13.4187 11.325L12.3062 12.65C11.9312 13.0937 11.8562 13.725 12.1124 14.25C13.4312 16.9062 15.5812 19.0562 18.2312 20.3812C18.7562 20.6437 19.3812 20.5687 19.8312 20.1875L21.1624 19.0687C22.4437 17.8437 24.4562 17.8437 25.7437 19.0625C25.7437 19.0625 28.3187 21.0437 28.3499 21.075C29.6374 22.3687 29.6374 24.4625 28.3499 25.7562L27.3749 26.875C26.1249 28.1375 24.4249 28.8437 22.6437 28.8375ZM19.2812 3.58748C19.8749 3.58748 20.3499 4.06873 20.3499 4.65623V13.6437C20.3499 14.2375 19.8687 14.7125 19.2812 14.7125C18.6874 14.7125 18.2124 14.2312 18.2124 13.6437V4.65623C18.2124 4.06873 18.6937 3.58748 19.2812 3.58748ZM22.9187 4.65623V13.6437C22.9187 14.2375 23.3999 14.7125 23.9874 14.7125C24.5812 14.7125 25.0562 14.2312 25.0562 13.6437V4.65623C25.0562 4.06248 24.5749 3.58748 23.9874 3.58748C23.3999 3.58748 22.9187 4.06873 22.9187 4.65623Z" fill="#FFFFFF"/>
</svg>
