<svg width="33" height="32" viewBox="0 0 33 32" fill="none" xmlns="http://www.w3.org/2000/svg">
<path d="M9.72414 2.1331C8.91687 2.04287 8.08332 2.04287 7.27607 2.1331C6.60163 2.20847 6.05438 2.73917 5.97434 3.42357C5.8777 4.24978 5.8777 5.08445 5.97434 5.91066C6.05438 6.59506 6.60163 7.12575 7.27607 7.20113C8.08332 7.29135 8.91687 7.29135 9.72414 7.20113C10.3986 7.12575 10.9458 6.59506 11.0259 5.91066C11.1225 5.08445 11.1225 4.24978 11.0259 3.42357C10.9458 2.73917 10.3986 2.20847 9.72414 2.1331Z" fill="#595959"/>
<path d="M17.7241 2.1331C16.9169 2.04287 16.0833 2.04287 15.2761 2.1331C14.6017 2.20847 14.0544 2.73917 13.9744 3.42357C13.8777 4.24978 13.8777 5.08445 13.9744 5.91066C14.0544 6.59506 14.6017 7.12575 15.2761 7.20113C16.0833 7.29135 16.9169 7.29135 17.7241 7.20113C18.3986 7.12575 18.9458 6.59506 19.0258 5.91066C19.1225 5.08445 19.1225 4.24978 19.0258 3.42357C18.9458 2.73917 18.3986 2.20847 17.7241 2.1331Z" fill="#595959"/>
<path d="M25.7241 2.1331C24.9169 2.04287 24.0833 2.04287 23.2761 2.1331C22.6017 2.20847 22.0544 2.73917 21.9744 3.42357C21.8777 4.24978 21.8777 5.08445 21.9744 5.91066C22.0544 6.59506 22.6017 7.12575 23.2761 7.20113C24.0833 7.29135 24.9169 7.29135 25.7241 7.20113C26.3986 7.12575 26.9458 6.59506 27.0258 5.91066C27.1225 5.08445 27.1225 4.24978 27.0258 3.42357C26.9458 2.73917 26.3986 2.20847 25.7241 2.1331Z" fill="#595959"/>
<path d="M9.72414 9.46611C8.91687 9.37588 8.08332 9.37588 7.27607 9.46611C6.60163 9.54148 6.05438 10.0722 5.97434 10.7566C5.8777 11.5828 5.8777 12.4175 5.97434 13.2437C6.05438 13.928 6.60163 14.4588 7.27607 14.5341C8.08332 14.6244 8.91687 14.6244 9.72414 14.5341C10.3986 14.4588 10.9458 13.928 11.0259 13.2437C11.1225 12.4175 11.1225 11.5828 11.0259 10.7566C10.9458 10.0722 10.3986 9.54148 9.72414 9.46611Z" fill="#595959"/>
<path d="M17.7241 9.46611C16.9169 9.37588 16.0833 9.37588 15.2761 9.46611C14.6017 9.54148 14.0544 10.0722 13.9744 10.7566C13.8777 11.5828 13.8777 12.4175 13.9744 13.2437C14.0544 13.928 14.6017 14.4588 15.2761 14.5341C16.0833 14.6244 16.9169 14.6244 17.7241 14.5341C18.3986 14.4588 18.9458 13.928 19.0258 13.2437C19.1225 12.4175 19.1225 11.5828 19.0258 10.7566C18.9458 10.0722 18.3986 9.54148 17.7241 9.46611Z" fill="#595959"/>
<path d="M25.7241 9.46611C24.9169 9.37588 24.0833 9.37588 23.2761 9.46611C22.6017 9.54148 22.0544 10.0722 21.9744 10.7566C21.8777 11.5828 21.8777 12.4175 21.9744 13.2437C22.0544 13.928 22.6017 14.4588 23.2761 14.5341C24.0833 14.6244 24.9169 14.6244 25.7241 14.5341C26.3986 14.4588 26.9458 13.928 27.0258 13.2437C27.1225 12.4175 27.1225 11.5828 27.0258 10.7566C26.9458 10.0722 26.3986 9.54148 25.7241 9.46611Z" fill="#595959"/>
<path d="M9.72414 16.8001C8.91687 16.7099 8.08332 16.7099 7.27607 16.8001C6.60163 16.8755 6.05438 17.4061 5.97434 18.0905C5.8777 18.9168 5.8777 19.7515 5.97434 20.5776C6.05438 21.262 6.60163 21.7928 7.27607 21.8681C8.08332 21.9584 8.91687 21.9584 9.72414 21.8681C10.3986 21.7928 10.9458 21.262 11.0259 20.5776C11.1225 19.7515 11.1225 18.9168 11.0259 18.0905C10.9458 17.4061 10.3986 16.8755 9.72414 16.8001Z" fill="#595959"/>
<path d="M17.7241 16.8001C16.9169 16.7099 16.0833 16.7099 15.2761 16.8001C14.6017 16.8755 14.0544 17.4061 13.9744 18.0905C13.8777 18.9168 13.8777 19.7515 13.9744 20.5776C14.0544 21.262 14.6017 21.7928 15.2761 21.8681C16.0833 21.9584 16.9169 21.9584 17.7241 21.8681C18.3986 21.7928 18.9458 21.262 19.0258 20.5776C19.1225 19.7515 19.1225 18.9168 19.0258 18.0905C18.9458 17.4061 18.3986 16.8755 17.7241 16.8001Z" fill="#595959"/>
<path d="M17.7241 24.1331C16.9169 24.0429 16.0833 24.0429 15.2761 24.1331C14.6017 24.2085 14.0544 24.7391 13.9744 25.4235C13.8777 26.2498 13.8777 27.0845 13.9744 27.9106C14.0544 28.595 14.6017 29.1258 15.2761 29.2011C16.0833 29.2914 16.9169 29.2914 17.7241 29.2011C18.3986 29.1258 18.9458 28.595 19.0258 27.9106C19.1225 27.0845 19.1225 26.2498 19.0258 25.4235C18.9458 24.7391 18.3986 24.2085 17.7241 24.1331Z" fill="#595959"/>
<path d="M25.7241 16.8001C24.9169 16.7099 24.0833 16.7099 23.2761 16.8001C22.6017 16.8755 22.0544 17.4061 21.9744 18.0905C21.8777 18.9168 21.8777 19.7515 21.9744 20.5776C22.0544 21.262 22.6017 21.7928 23.2761 21.8681C24.0833 21.9584 24.9169 21.9584 25.7241 21.8681C26.3986 21.7928 26.9458 21.262 27.0258 20.5776C27.1225 19.7515 27.1225 18.9168 27.0258 18.0905C26.9458 17.4061 26.3986 16.8755 25.7241 16.8001Z" fill="#595959"/>
</svg>
