<svg width="12" height="12" viewBox="0 0 12 12" fill="none" xmlns="http://www.w3.org/2000/svg">
<g clip-path="url(#clip0_2_59920)">
<path d="M11.8676 1.89154C11.6901 1.71367 11.4027 1.71321 11.2247 1.89032L7.77332 5.32773L6.77589 4.3303C6.5983 4.15288 6.31075 4.15272 6.13316 4.3303L2.08772 8.37577C1.91013 8.55319 1.91013 8.84107 2.08772 9.0185C2.17636 9.10728 2.29273 9.15167 2.40909 9.15167C2.5253 9.15167 2.64183 9.10728 2.73044 9.0185L6.45454 5.29457L7.45136 6.29122C7.62878 6.46864 7.91561 6.46881 8.09347 6.29197L11.8662 2.53441C12.0441 2.35729 12.0447 2.06941 11.8676 1.89154Z" fill="black"/>
<path d="M11.5303 10.5454H0.909092V0.999956C0.909092 0.748894 0.705608 0.54541 0.454546 0.54541C0.203484 0.54541 0 0.748894 0 0.999956V10.9999C0 11.251 0.203484 11.4545 0.454546 11.4545H11.5303C11.7814 11.4545 11.9848 11.251 11.9848 10.9999C11.9848 10.7489 11.7814 10.5454 11.5303 10.5454Z" fill="black"/>
<path d="M11.5454 1.74268H8.13635C7.88529 1.74268 7.68181 1.94616 7.68181 2.19722C7.68181 2.44828 7.88529 2.65177 8.13635 2.65177H11.0909V5.60646C11.0909 5.85736 11.2944 6.061 11.5454 6.061C11.7965 6.061 12 5.85736 12 5.60629V2.19722C12 1.94616 11.7965 1.74268 11.5454 1.74268Z" fill="black"/>
</g>
<defs>
<clipPath id="clip0_2_59920">
<rect width="12" height="12" fill="white"/>
</clipPath>
</defs>
</svg>
