<svg
    width="20"
    height="16"
    viewBox="0 0 20 16"
    fill="none"
    xmlns="http://www.w3.org/2000/svg"
>
    <path
        d="M17 0H3C2.20508 0.00237409 1.4434 0.319207 0.881302 0.881302C0.319207 1.4434 0.00237409 2.20508 0 3V13C0.00237409 13.7949 0.319207 14.5566 0.881302 15.1187C1.4434 15.6808 2.20508 15.9976 3 16H17C17.7949 15.9976 18.5566 15.6808 19.1187 15.1187C19.6808 14.5566 19.9976 13.7949 20 13V3C19.9976 2.20508 19.6808 1.4434 19.1187 0.881302C18.5566 0.319207 17.7949 0.00237409 17 0ZM15 13H11C10.4701 12.9984 9.96227 12.7872 9.58753 12.4125C9.2128 12.0377 9.00158 11.5299 9 11V9C9.00158 8.47005 9.2128 7.96227 9.58753 7.58753C9.96227 7.2128 10.4701 7.00158 11 7H15C15.5299 7.00158 16.0377 7.2128 16.4125 7.58753C16.7872 7.96227 16.9984 8.47005 17 9V11C16.9984 11.5299 16.7872 12.0377 16.4125 12.4125C16.0377 12.7872 15.5299 12.9984 15 13Z"
        fill="#98A2B3"
    />
</svg>