<svg width="33" height="32" viewBox="0 0 33 32" fill="none" xmlns="http://www.w3.org/2000/svg">
    <path
        d="M29.5 27.5C23.1589 27.5 18 22.3411 18 16V6.62137L21.9393 10.5607C22.2206 10.842 22.6021 11 23 11C23.3978 11 23.7793 10.842 24.0607 10.5607C24.342 10.2794 24.5 9.89788 24.5 9.50005C24.5 9.10222 24.342 8.72068 24.0607 8.43937L17.5607 1.93937C17.4214 1.80007 17.256 1.68957 17.074 1.61419C16.892 1.5388 16.697 1.5 16.5 1.5C16.303 1.5 16.108 1.5388 15.926 1.61419C15.744 1.68957 15.5786 1.80007 15.4393 1.93937L8.93931 8.43937C8.65801 8.72068 8.49998 9.10222 8.49998 9.50005C8.49999 9.89788 8.65803 10.2794 8.93934 10.5607C9.22066 10.842 9.60219 11 10 11C10.3979 11 10.7794 10.842 11.0607 10.5607L15 6.62137V16C15 22.3411 9.84113 27.5 3.5 27.5C3.10218 27.5 2.72064 27.658 2.43934 27.9393C2.15804 28.2206 2 28.6022 2 29C2 29.3978 2.15804 29.7794 2.43934 30.0607C2.72064 30.342 3.10218 30.5 3.5 30.5C5.40494 30.5052 7.29199 30.1325 9.05193 29.4035C10.8119 28.6746 12.4097 27.6037 13.7531 26.2531C14.8698 25.1388 15.7976 23.8501 16.5 22.4375C17.7034 24.8569 19.5573 26.893 21.8536 28.3172C24.15 29.7413 26.7979 30.4972 29.5 30.5C29.8978 30.5 30.2794 30.342 30.5607 30.0607C30.842 29.7794 31 29.3978 31 29C31 28.6022 30.842 28.2206 30.5607 27.9393C30.2794 27.658 29.8978 27.5 29.5 27.5Z"
        fill="#595959" />
</svg>