<svg width="24" height="24" viewBox="0 0 24 24" fill="none" xmlns="http://www.w3.org/2000/svg">
<g clip-path="url(#clip0_2_48095)">
<path d="M19.8265 12.8474C19.8265 12.4523 19.5061 12.1318 19.1107 12.1318C18.7154 12.1318 18.395 12.4523 18.395 12.8474C18.395 16.3484 15.547 19.1964 12.046 19.1964C8.54517 19.1964 5.69715 16.3484 5.69715 12.8474C5.69715 12.4523 5.37671 12.1318 4.98139 12.1318C4.58606 12.1318 4.26562 12.4523 4.26562 12.8474C4.26562 16.8964 7.3744 20.2321 11.3302 20.5946V22.5214H8.67408C8.27876 22.5214 7.95832 22.8419 7.95832 23.2372C7.95832 23.6325 8.27876 23.953 8.67408 23.953H15.4181C15.8132 23.953 16.1336 23.6325 16.1336 23.2372C16.1336 22.8419 15.8132 22.5214 15.4181 22.5214H12.7617V20.5946C16.7177 20.2323 19.8265 16.8964 19.8265 12.8474Z" fill="#667085"/>
<path d="M12.046 17.4306C14.573 17.4306 16.6289 15.3747 16.6289 12.8476V4.5359C16.6289 2.00904 14.573 -0.046875 12.046 -0.046875C9.51911 -0.046875 7.4632 2.00904 7.4632 4.5359V12.8476C7.4632 15.3747 9.51911 17.4306 12.046 17.4306ZM8.89453 4.5359C8.89453 2.79822 10.3083 1.38465 12.046 1.38465C13.7836 1.38465 15.1974 2.79822 15.1974 4.5359V12.8476C15.1974 14.5853 13.7836 15.9991 12.046 15.9991C10.3083 15.9991 8.89453 14.5853 8.89453 12.8476V4.5359Z" fill="#667085"/>
</g>
<defs>
<clipPath id="clip0_2_48095">
<rect width="24" height="24" fill="white"/>
</clipPath>
</defs>
</svg>
