<svg width="33" height="32" viewBox="0 0 33 32" fill="none" xmlns="http://www.w3.org/2000/svg">
<g clip-path="url(#clip0_2_40987)">
<path d="M13.0563 20.9524C14.0709 21.5341 15.2466 21.8667 16.4999 21.8667C20.2744 21.8667 23.3444 18.8506 23.4313 15.097L23.4333 14.9333V12.2667C23.4333 11.6776 23.9108 11.2 24.5 11.2C25.0622 11.2 25.523 11.6352 25.5637 12.1871L25.5666 12.2667V14.9333C25.5666 19.5798 22.0714 23.4098 17.5669 23.9379L17.5666 29.8667H20.7666C21.3557 29.8667 21.8333 30.3442 21.8333 30.9334C21.8333 31.4957 21.3982 31.9564 20.8462 31.9971L20.7666 32H12.2332C11.6441 32 11.1665 31.5224 11.1665 30.9333C11.1665 30.371 11.6017 29.9103 12.1536 29.8696L12.2332 29.8667H15.4333L15.4335 23.938C13.9946 23.7694 12.6585 23.2638 11.5067 22.5024L2.92348 31.085C2.50693 31.5015 1.83158 31.5015 1.41495 31.085C0.998401 30.6684 0.998401 29.9931 1.41495 29.5764L30.0764 0.915023C30.4929 0.49847 31.1683 0.49847 31.5849 0.915023C32.0015 1.33158 32.0015 2.00693 31.5849 2.42355L21.8332 12.1749V14.9333C21.8332 17.8789 19.4454 20.2667 16.4999 20.2667C15.6929 20.2667 14.9278 20.0874 14.2421 19.7666L13.0563 20.9524ZM8.49991 11.2C9.06221 11.2 9.52295 11.6352 9.56365 12.1871L9.56654 12.2667V14.9333C9.56654 16.3492 9.99095 17.666 10.7195 18.7633L9.18779 20.2952C8.11642 18.8365 7.47095 17.0456 7.43484 15.1056L7.43321 14.9333V12.2667C7.43329 11.6776 7.91085 11.2 8.49991 11.2ZM16.5 0C19.4455 0 21.8333 2.38782 21.8333 5.33335V7.64911L11.8813 17.6021C11.4268 16.8172 11.1666 15.9057 11.1666 14.9333V5.33335C11.1666 2.38782 13.5544 0 16.5 0Z" fill="#595959"/>
</g>
<defs>
<clipPath id="clip0_2_40987">
<rect width="32" height="32" fill="white" transform="translate(0.5)"/>
</clipPath>
</defs>
</svg>
