<svg width="33" height="32" viewBox="0 0 33 32" fill="none" xmlns="http://www.w3.org/2000/svg">
<path d="M19.5575 3.05737C19.8075 2.80741 20.1466 2.66699 20.5002 2.66699C20.8537 2.66699 21.1928 2.80741 21.4428 3.05737L26.7762 8.39071C27.0261 8.64074 27.1665 8.97982 27.1665 9.33337C27.1665 9.68693 27.0261 10.026 26.7762 10.276L21.4428 15.6094C21.1914 15.8523 20.8546 15.9866 20.505 15.9836C20.1554 15.9806 19.8209 15.8403 19.5737 15.5931C19.3265 15.3459 19.1863 15.0115 19.1833 14.6619C19.1802 14.3123 19.3146 13.9755 19.5575 13.724L22.6148 10.6667H7.16683C6.81321 10.6667 6.47407 10.5262 6.22402 10.2762C5.97397 10.0261 5.8335 9.687 5.8335 9.33337C5.8335 8.97975 5.97397 8.64061 6.22402 8.39057C6.47407 8.14052 6.81321 8.00004 7.16683 8.00004H22.6148L19.5575 4.94271C19.3075 4.69267 19.1671 4.35359 19.1671 4.00004C19.1671 3.64649 19.3075 3.30741 19.5575 3.05737ZM13.4428 16.3907C13.6928 16.6407 13.8332 16.9798 13.8332 17.3334C13.8332 17.6869 13.6928 18.026 13.4428 18.276L10.3855 21.3334H25.8335C26.1871 21.3334 26.5263 21.4739 26.7763 21.7239C27.0264 21.9739 27.1668 22.3131 27.1668 22.6667C27.1668 23.0203 27.0264 23.3595 26.7763 23.6095C26.5263 23.8596 26.1871 24 25.8335 24H10.3855L13.4428 27.0574C13.6857 27.3088 13.8201 27.6456 13.8171 27.9952C13.814 28.3448 13.6738 28.6793 13.4266 28.9265C13.1794 29.1737 12.845 29.3139 12.4954 29.3169C12.1458 29.32 11.809 29.1856 11.5575 28.9427L6.22416 23.6094C5.9742 23.3593 5.83378 23.0203 5.83378 22.6667C5.83378 22.3132 5.9742 21.9741 6.22416 21.724L11.5575 16.3907C11.8075 16.1407 12.1466 16.0003 12.5002 16.0003C12.8537 16.0003 13.1928 16.1407 13.4428 16.3907Z" fill="#595959"/>
</svg>
