<svg width="12" height="12" viewBox="0 0 12 12" fill="none" xmlns="http://www.w3.org/2000/svg">
<path d="M10.3334 0H1.66663C0.746521 0.000823973 0.000823973 0.746521 0 1.66663V10.3334C0.000823973 11.2535 0.746521 11.9992 1.66663 12H10.3334C11.2535 11.9992 11.9992 11.2535 12 10.3334V1.66663C11.9992 0.746521 11.2535 0.000823973 10.3334 0ZM4.41669 8.50003V6.16663H7.58331V8.50003H4.41669ZM7.58331 9.16663V11.3333H4.41669V9.16663H7.58331ZM7.58331 3.33334V5.50003H4.41669V3.33334H7.58331ZM11.3333 3.33334V5.50003H8.25V3.33334H11.3333ZM3.75 5.50003H0.666687V3.33334H3.75V5.50003ZM0.666687 6.16663H3.75V8.50003H0.666687V6.16663ZM8.25 6.16663H11.3333V8.50003H8.25V6.16663ZM1.66663 0.666687H10.3334C10.8853 0.667236 11.3328 1.11465 11.3333 1.66663V2.66666H0.666687V1.66663C0.667236 1.11465 1.11465 0.667236 1.66663 0.666687ZM0.666687 10.3334V9.16663H3.75V11.3333H1.66663C1.11465 11.3328 0.667236 10.8853 0.666687 10.3334ZM10.3334 11.3333H8.25V9.16663H11.3333V10.3334C11.3328 10.8853 10.8853 11.3328 10.3334 11.3333Z" fill="#000000"/>
</svg>
