<svg width="20" height="20" viewBox="0 0 20 20" fill="none" xmlns="http://www.w3.org/2000/svg">
    <path
        d="M18.7495 9.99981C18.7497 9.80903 18.7072 9.62062 18.625 9.44844C18.5429 9.27627 18.4231 9.12471 18.2746 9.00494L17.1476 8.06619L17.6637 6.72341C17.7306 6.54536 17.7572 6.35468 17.7416 6.1651C17.7259 5.97553 17.6685 5.79177 17.5734 5.62706C17.4782 5.46235 17.3477 5.32078 17.1913 5.21253C17.0349 5.10429 16.8564 5.03207 16.6688 5.00106L15.2232 4.75143L14.9986 3.3305C14.9675 3.14279 14.8953 2.96429 14.787 2.80785C14.6788 2.65141 14.5372 2.52092 14.3724 2.42578C14.2076 2.33063 14.0238 2.2732 13.8342 2.25761C13.6446 2.24202 13.4539 2.26867 13.2758 2.33563L11.8992 2.84283L10.9943 1.72467C10.8706 1.58238 10.7177 1.4683 10.5461 1.39012C10.3745 1.31194 10.1881 1.27148 9.99946 1.27148C9.81087 1.27148 9.62447 1.31194 9.45285 1.39012C9.28122 1.4683 9.12837 1.58238 9.00459 1.72467L8.06584 2.85138L6.7234 2.33563C6.5453 2.26862 6.35456 2.24193 6.16491 2.25749C5.97526 2.27306 5.79143 2.33048 5.62664 2.42563C5.46185 2.52078 5.32021 2.65129 5.21192 2.80776C5.10362 2.96422 5.03138 3.14276 5.00038 3.3305L4.75105 4.77643L3.33076 5.00044C3.14302 5.03146 2.96448 5.10371 2.808 5.21199C2.65152 5.32027 2.52099 5.46189 2.42579 5.62666C2.33059 5.79143 2.2731 5.97525 2.25745 6.1649C2.2418 6.35454 2.26838 6.5453 2.33528 6.72345L2.84248 8.1004L1.72373 9.00494C1.57678 9.12578 1.45842 9.27769 1.37719 9.44974C1.29595 9.62179 1.25385 9.8097 1.25391 9.99996C1.25397 10.1902 1.29619 10.3781 1.37753 10.5501C1.45888 10.7221 1.57732 10.8739 1.72436 10.9947L2.85137 11.9334L2.33528 13.2762C2.26836 13.4542 2.24176 13.6449 2.25737 13.8345C2.27298 14.0241 2.33043 14.2078 2.42557 14.3726C2.52071 14.5373 2.65118 14.6789 2.8076 14.7871C2.96401 14.8954 3.14248 14.9676 3.33015 14.9986L4.77578 15.2482L5.00038 16.6691C5.03146 16.8568 5.10374 17.0353 5.21202 17.1917C5.32031 17.3481 5.46191 17.4785 5.62665 17.5737C5.79138 17.6688 5.97515 17.7262 6.16474 17.7419C6.35432 17.7575 6.54502 17.7309 6.7231 17.664L8.09975 17.1568L9.00459 18.275C9.12532 18.4221 9.27716 18.5406 9.44919 18.622C9.62123 18.7033 9.80916 18.7455 9.99947 18.7455C10.1898 18.7455 10.3777 18.7033 10.5497 18.622C10.7218 18.5406 10.8736 18.4221 10.9943 18.275L11.9331 17.1483L13.2756 17.664C13.4537 17.731 13.6444 17.7576 13.8341 17.7421C14.0237 17.7265 14.2075 17.6691 14.3723 17.5739C14.5371 17.4788 14.6787 17.3483 14.787 17.1918C14.8953 17.0354 14.9676 16.8569 14.9986 16.6691L15.2479 15.2232L16.6682 14.9992C16.856 14.9682 17.0345 14.8959 17.191 14.7876C17.3475 14.6794 17.478 14.5377 17.5732 14.373C17.6684 14.2082 17.7259 14.0244 17.7415 13.8347C17.7572 13.6451 17.7306 13.4543 17.6637 13.2762L17.1565 11.8992L18.2753 10.9947C18.4236 10.8748 18.5431 10.7232 18.6252 10.551C18.7073 10.3789 18.7497 10.1905 18.7495 9.99981Z"
        fill="#1D9BF0" />
    <path
        d="M8.82471 12.9476C8.42101 12.9486 8.02796 12.8181 7.70502 12.5759L6.18738 11.4376C6.0548 11.3381 5.96717 11.1901 5.94377 11.026C5.92036 10.8619 5.96309 10.6952 6.06257 10.5627C6.16204 10.4301 6.3101 10.3425 6.47418 10.319C6.63827 10.2956 6.80493 10.3384 6.9375 10.4378L8.45483 11.5761C8.58636 11.6734 8.75059 11.7156 8.91272 11.6939C9.07485 11.6721 9.22214 11.5881 9.32337 11.4596L12.944 6.80381C12.9944 6.739 13.0571 6.68477 13.1285 6.64419C13.1998 6.60361 13.2785 6.57749 13.36 6.56732C13.4415 6.55714 13.5241 6.56312 13.6033 6.5849C13.6825 6.60668 13.7566 6.64384 13.8214 6.69425C13.8862 6.74467 13.9404 6.80735 13.981 6.87873C14.0216 6.95011 14.0477 7.02878 14.0579 7.11025C14.068 7.19172 14.0621 7.2744 14.0403 7.35357C14.0185 7.43273 13.9813 7.50683 13.9309 7.57163L10.31 12.2274C10.1336 12.4525 9.90805 12.6345 9.65065 12.7593C9.39325 12.8841 9.11077 12.9485 8.82471 12.9476Z"
        fill="#F5F5F5" />
</svg>